# xmcd CD database file
#
# Track frame offsets:
#	150
#	26779
#	53003
#	82206
#	109214
#	134684
#	157213
#	180090
#	197851
#
# Disc length: 2935 seconds
#
# Revision: 0
# Processed by: cddbd v1.5.2PL0 Copyright (c) Steve Scherf et al.
# Submitted via: CDex 1.70beta2
#
DISCID=7f0b7509
DTITLE=Digiview Entertainment - A New Dawn
DYEAR=2005
DGENRE=New Age
TTITLE0=Solace
TTITLE1=Spanish Sunrise
TTITLE2=Fluidity
TTITLE3=Seascape
TTITLE4=Tomorrow
TTITLE5=Our Land
TTITLE6=Rainbow Sky
TTITLE7=Fade Into You
TTITLE8=Simply Mine
EXTD=YEAR: 2005
EXTT0=
EXTT1=
EXTT2=
EXTT3=
EXTT4=
EXTT5=
EXTT6=
EXTT7=
EXTT8=
PLAYORDER=
